<svg width="1366" height="768" viewBox="0 0 1366 768" fill="none" xmlns="http://www.w3.org/2000/svg">
<mask id="mask0_142_4283" style="mask-type:alpha" maskUnits="userSpaceOnUse" x="0" y="0" width="1366" height="768">
<rect width="1366" height="768" fill="white"/>
</mask>
<g mask="url(#mask0_142_4283)">
<rect x="0.671875" y="0.284943" width="1366" height="768" fill="url(#paint0_linear_142_4283)"/>
<path opacity="0.75" d="M18.5106 352.49L25.3666 391.149L0.671875 394.013L18.5106 352.49Z" fill="#0096FF" fill-opacity="0.04"/>
<path opacity="0.75" d="M207.881 409.758V428.368L184.551 425.504L207.881 409.758Z" fill="#0096FF" fill-opacity="0.04"/>
<path opacity="0.75" d="M596.256 368.234L593.51 406.894L571.544 395.437L596.256 368.234Z" fill="#0096FF" fill-opacity="0.04"/>
<path opacity="0.75" d="M1140.43 325.968L1089.18 341.154L1118.3 366.662L1140.43 325.968Z" fill="#0096FF" fill-opacity="0.04"/>
<path opacity="0.75" d="M969.625 417.101L941.567 415.83L950.717 435.558L969.625 417.101Z" fill="#0096FF" fill-opacity="0.04"/>
<path opacity="0.75" d="M842.788 271.699L831.187 293.969L818.385 274.886L842.788 271.699Z" fill="#0096FF" fill-opacity="0.04"/>
<path d="M756.989 332.951L576.229 22.3686L574.377 20.8262H575.368L574.815 19.8775L577.042 20.9118L922.234 38.1141L923.682 35.5888L923.544 38.1141L1292.9 0.946037L1293.76 0.285004V0.556344L1294.34 0.285004L1293.99 1.79375L1366.67 397.965L1353.37 387.237L1354.57 395.101L1353.56 394.881L1046 446.303L1045.87 447.438L908.685 297.613L756.355 334.205L756.989 332.951ZM821.455 221.243L911.563 178.329L859.196 153.991L821.455 221.243ZM857.717 153.296L582.402 25.3014L819.473 221.531L857.717 153.296ZM975.436 244.514L915.879 181.99L909.865 294.901L975.436 244.514ZM916.11 178.075L916.008 179.77L976.773 243.547L1078.27 165.584L1028.86 125.755L916.11 178.075ZM1027.39 124.45L923.415 40.6395L916.202 176.228L1027.39 124.45ZM1079.6 164.398L1080.47 163.737V163.991L1286.63 5.74264L1030.52 124.857L1079.6 164.398ZM1081.09 165.601L1081.22 165.703L1081.63 165.432L1082.44 166.686L1140.92 213.769L1289.3 5.81L1081.09 165.601ZM1085.4 171.177L1126.42 234.023L1139.89 215.243L1085.4 171.177ZM1081.26 167.787L1080.09 166.838L1060.59 326.07L1125.39 235.463L1081.26 167.787ZM913.527 177.296H913.702L914.579 176.94L915.492 159.991L921.745 42.4191L860.008 152.483L913.527 177.296ZM1029.07 123.721L1288.25 3.0985L924.798 39.6226L1029.07 123.721ZM1291.5 5.64065L1142.2 214.837L1225.99 282.427L1291.5 5.64065ZM1227.46 283.596L1351.16 383.305L1293.03 6.01399L1227.46 283.596ZM1141.22 216.226L1127.41 235.581L1207.92 358.831L1225.57 284.258L1141.22 216.226ZM1207.38 361.153V361.035L1126.32 236.954L1060.63 329.018L1207.38 361.153ZM1058.72 328.595L1078.34 167.787L977.945 244.768L1057.55 328.341L1058.72 328.595ZM976.644 245.751L910.889 296.206L1054.69 327.68L976.644 245.751ZM914.339 180.346L913.343 179.312L821.423 223.107L908.224 294.952L914.339 180.346ZM818.335 222.718L579.901 25.4198L757.979 331.29L818.335 223.565L818.043 222.887L818.335 222.718ZM858.513 151.822L921.303 39.7581L581.135 22.8093L858.513 151.822ZM1364.27 393.898L1302.65 57.7914L1352.99 384.728L1364.27 393.898ZM1226.99 285.428L1208.97 361.492L1352.59 392.948L1351.48 385.729L1226.99 285.428ZM1349.13 393.898L1060.12 330.629L1046.18 444.54L1349.13 393.898ZM1058.31 331.562L1056.69 329.866L911.332 298.071L1044.67 443.692L1058.31 331.562ZM907.071 296.224L819.879 224.057L759.604 331.663L907.071 296.224Z" fill="#0096FF" fill-opacity="0.04"/>
<path d="M898.964 296.376C898.964 298.387 899.536 300.353 900.615 302.026C901.685 303.698 903.207 305.002 904.987 305.771C906.767 306.541 908.722 306.742 910.622 306.35C912.513 305.957 914.247 304.989 915.612 303.567C916.968 302.145 917.9 300.333 918.278 298.36C918.656 296.387 918.462 294.342 917.725 292.484C916.987 290.626 915.732 289.038 914.127 287.921C912.532 286.803 910.641 286.207 908.713 286.207C906.131 286.207 903.649 287.279 901.823 289.186C899.997 291.093 898.964 293.679 898.964 296.376Z" fill="#0096FF" fill-opacity="0.04"/>
<path d="M969.626 244.191C969.626 245.751 970.069 247.275 970.899 248.572C971.729 249.868 972.91 250.878 974.293 251.474C975.677 252.071 977.189 252.226 978.656 251.92C980.122 251.615 981.469 250.862 982.53 249.758C983.581 248.654 984.301 247.248 984.587 245.718C984.882 244.188 984.725 242.604 984.153 241.164C983.581 239.724 982.613 238.494 981.368 237.631C980.122 236.767 978.656 236.307 977.162 236.311C975.16 236.315 973.242 237.147 971.83 238.625C970.419 240.102 969.626 242.104 969.626 244.191Z" fill="#0096FF" fill-opacity="0.04"/>
<path d="M1048.04 327.239C1048.04 329.319 1048.63 331.351 1049.74 333.079C1050.86 334.808 1052.43 336.154 1054.27 336.949C1056.11 337.744 1058.13 337.952 1060.09 337.545C1062.05 337.138 1063.84 336.135 1065.25 334.664C1066.66 333.193 1067.62 331.318 1068 329.279C1068.39 327.239 1068.19 325.126 1067.42 323.207C1066.66 321.286 1065.37 319.647 1063.71 318.494C1062.05 317.341 1060.1 316.728 1058.11 316.731C1056.78 316.731 1055.47 317.003 1054.25 317.532C1053.03 318.06 1051.92 318.834 1050.99 319.81C1050.05 320.786 1049.31 321.944 1048.81 323.219C1048.3 324.494 1048.04 325.86 1048.04 327.239Z" fill="#0096FF" fill-opacity="0.04"/>
<path d="M747.437 329.561C747.437 332.119 748.163 334.619 749.526 336.746C750.888 338.872 752.824 340.53 755.089 341.509C757.355 342.487 759.847 342.743 762.251 342.245C764.656 341.746 766.865 340.514 768.598 338.706C770.332 336.897 771.513 334.593 771.991 332.084C772.469 329.576 772.224 326.976 771.286 324.613C770.347 322.249 768.759 320.23 766.72 318.809C764.681 317.388 762.285 316.63 759.833 316.63C756.547 316.634 753.396 317.998 751.072 320.422C748.748 322.847 747.441 326.133 747.437 329.561Z" fill="#0096FF" fill-opacity="0.04"/>
<path d="M1037.5 446.032C1037.5 448.107 1038.09 450.135 1039.2 451.861C1040.31 453.586 1041.87 454.93 1043.71 455.724C1045.54 456.519 1047.57 456.726 1049.52 456.321C1051.48 455.916 1053.27 454.918 1054.67 453.45C1056.08 451.983 1057.04 450.113 1057.42 448.078C1057.81 446.043 1057.61 443.934 1056.85 442.017C1056.09 440.1 1054.8 438.462 1053.15 437.309C1051.49 436.155 1049.55 435.541 1047.56 435.541C1044.89 435.541 1042.34 436.646 1040.44 438.613C1038.56 440.581 1037.5 443.249 1037.5 446.032Z" fill="#0096FF" fill-opacity="0.04"/>
<path d="M904.397 179.77C904.387 181.846 904.978 183.876 906.084 185.603C907.182 187.331 908.75 188.678 910.595 189.475C912.43 190.271 914.45 190.482 916.406 190.079C918.352 189.676 920.15 188.678 921.562 187.212C922.964 185.745 923.923 183.876 924.31 181.84C924.707 179.805 924.504 177.694 923.748 175.776C922.982 173.858 921.691 172.219 920.04 171.065C918.389 169.912 916.442 169.296 914.45 169.296C911.785 169.296 909.23 170.399 907.348 172.363C905.457 174.327 904.397 176.991 904.397 179.77Z" fill="#0096FF" fill-opacity="0.04"/>
<path d="M1200.9 362.102C1200.9 363.882 1201.4 365.62 1202.35 367.098C1203.3 368.576 1204.65 369.727 1206.23 370.405C1207.81 371.083 1209.54 371.259 1211.22 370.91C1212.89 370.561 1214.42 369.703 1215.63 368.443C1216.84 367.184 1217.66 365.58 1217.98 363.835C1218.31 362.09 1218.14 360.282 1217.49 358.638C1216.84 356.995 1215.73 355.59 1214.31 354.602C1212.9 353.613 1211.23 353.086 1209.52 353.086C1208.39 353.086 1207.26 353.319 1206.22 353.772C1205.17 354.226 1204.22 354.89 1203.41 355.727C1202.61 356.565 1201.98 357.559 1201.54 358.653C1201.11 359.748 1200.89 360.919 1200.9 362.102Z" fill="#0096FF" fill-opacity="0.04"/>
<path d="M1072.86 166.093C1072.86 167.578 1073.28 169.029 1074.06 170.264C1074.86 171.499 1075.98 172.461 1077.3 173.029C1078.61 173.598 1080.06 173.746 1081.46 173.457C1082.85 173.167 1084.14 172.452 1085.14 171.402C1086.15 170.352 1086.84 169.014 1087.12 167.558C1087.39 166.101 1087.24 164.591 1086.7 163.22C1086.16 161.848 1085.23 160.675 1084.05 159.85C1082.86 159.025 1081.48 158.585 1080.05 158.585C1078.14 158.585 1076.31 159.376 1074.97 160.784C1073.61 162.192 1072.86 164.102 1072.86 166.093Z" fill="#0096FF" fill-opacity="0.04"/>
<path d="M106.616 363.913L110.937 440.638L66.2754 425.385L106.616 363.913ZM105.267 368.997L68.8423 424.538L109.182 438.283L105.267 368.997Z" fill="#0096FF" fill-opacity="0.04"/>
<path d="M595.053 568.058L548.035 558.854L574.485 528.212L595.053 568.058ZM551.188 557.753L591.999 565.736L574.128 531.144L551.188 557.753Z" fill="#0096FF" fill-opacity="0.04"/>
<path d="M414.602 408.097L388.688 398.573L413.058 379.488L414.602 408.097ZM411.628 382.675L392.133 397.928L412.88 405.555L411.628 382.675Z" fill="#0096FF" fill-opacity="0.04"/>
<path d="M911.821 373.899L860.188 371.831L921.746 342.816L911.821 373.899ZM910.668 372.204L919.034 346.019L867.14 370.458L910.668 372.204Z" fill="#0096FF" fill-opacity="0.04"/>
<path d="M576.89 278.543L598.791 303.457L558.986 309.677L576.89 278.543ZM577.166 281.356L562.138 307.474L595.525 302.254L577.166 281.356Z" fill="#0096FF" fill-opacity="0.04"/>
<path d="M551.853 244.053H536.109L542.088 224.816L551.853 244.053ZM549.156 242.357L542.446 229.137L538.352 242.357H549.156Z" fill="#0096FF" fill-opacity="0.04"/>
<path d="M1021.47 369.475L991.919 359.984L1007.5 346.425L1021.47 369.475ZM995.249 359.306L1017.73 366.509L1007.1 348.984L995.249 359.306Z" fill="#0096FF" fill-opacity="0.04"/>
<path d="M736.047 272.716L734.649 198.38L767.143 202.057L736.047 272.716ZM737.542 265.275L764.69 203.481L736.307 200.278L737.542 265.275Z" fill="#0096FF" fill-opacity="0.04"/>
<path opacity="0.75" d="M264.143 396.861C261.872 396.861 260.032 394.94 260.032 392.572C260.032 390.204 261.872 388.285 264.143 388.285C266.413 388.285 268.253 390.204 268.253 392.572C268.253 394.94 266.413 396.861 264.143 396.861Z" fill="#0096FF" fill-opacity="0.04"/>
<path opacity="0.75" d="M18.917 418.368C18.917 419.502 19.239 420.609 19.8424 421.551C20.4458 422.493 21.3034 423.227 22.3068 423.661C23.3103 424.094 24.4143 424.208 25.4796 423.986C26.5448 423.766 27.5233 423.221 28.2913 422.419C29.0593 421.617 29.5822 420.598 29.7941 419.486C30.006 418.375 29.8973 417.223 29.4817 416.176C29.066 415.129 28.3622 414.234 27.4591 413.605C26.5561 412.976 25.4944 412.64 24.4083 412.64C22.9519 412.64 21.5551 413.243 20.5253 414.317C19.4955 415.392 18.917 416.849 18.917 418.368Z" fill="#0096FF" fill-opacity="0.04"/>
<path opacity="0.75" d="M989.918 581.569C989.918 582.421 990.158 583.253 990.61 583.961C991.062 584.668 991.707 585.221 992.464 585.547C993.22 585.872 994.05 585.958 994.853 585.791C995.646 585.626 996.384 585.215 996.965 584.614C997.537 584.011 997.933 583.244 998.09 582.409C998.247 581.574 998.173 580.709 997.859 579.922C997.546 579.135 997.011 578.463 996.338 577.99C995.655 577.517 994.862 577.264 994.041 577.264C993.506 577.264 992.962 577.376 992.464 577.592C991.966 577.808 991.514 578.125 991.126 578.526C990.739 578.925 990.434 579.399 990.232 579.922C990.019 580.444 989.918 581.004 989.918 581.569Z" fill="#0096FF" fill-opacity="0.04"/>
<path opacity="0.75" d="M489.207 253.696C489.203 254.549 489.443 255.384 489.895 256.095C490.348 256.805 490.992 257.359 491.746 257.687C492.502 258.015 493.333 258.102 494.134 257.936C494.937 257.771 495.673 257.36 496.251 256.758C496.829 256.154 497.222 255.386 497.382 254.548C497.541 253.712 497.458 252.845 497.143 252.058C496.829 251.27 496.297 250.599 495.616 250.127C494.935 249.655 494.134 249.404 493.317 249.408C492.229 249.413 491.186 249.866 490.415 250.669C489.645 251.472 489.211 252.56 489.207 253.696Z" fill="#0096FF" fill-opacity="0.04"/>
<path opacity="0.75" d="M76.1377 281.61C76.1377 282.318 76.3388 283.01 76.7151 283.597C77.0923 284.185 77.6273 284.643 78.2536 284.915C78.8799 285.185 79.5698 285.256 80.2348 285.118C80.8989 284.98 81.5104 284.64 81.9891 284.139C82.4688 283.639 82.7953 283.002 82.9281 282.308C83.06 281.614 82.9917 280.896 82.7325 280.242C82.4734 279.589 82.0334 279.03 81.4698 278.637C80.9063 278.244 80.2431 278.034 79.5652 278.034C78.6567 278.034 77.7841 278.411 77.1412 279.082C76.4983 279.752 76.1377 280.662 76.1377 281.61Z" fill="#0096FF" fill-opacity="0.04"/>
<path opacity="0.75" d="M77.9238 482.078C77.9238 482.785 78.1258 483.477 78.5021 484.065C78.8785 484.653 79.4144 485.111 80.0406 485.382C80.6669 485.652 81.3559 485.724 82.0209 485.585C82.686 485.447 83.2966 485.107 83.7762 484.606C84.2558 484.106 84.5823 483.469 84.7142 482.775C84.847 482.082 84.7788 481.363 84.5196 480.71C84.2595 480.056 83.8204 479.497 83.2569 479.105C82.6933 478.711 82.0302 478.501 81.3522 478.501C80.4446 478.506 79.5748 478.884 78.9329 479.554C78.2909 480.224 77.9284 481.131 77.9238 482.078Z" fill="#0096FF" fill-opacity="0.04"/>
<g opacity="0.1" filter="url(#filter0_f_142_4283)">
<ellipse cx="-86.5" cy="110" rx="310.5" ry="307" fill="url(#paint1_linear_142_4283)"/>
</g>
<g opacity="0.22" filter="url(#filter1_f_142_4283)">
<ellipse cx="1242.5" cy="737.5" rx="421.5" ry="323.5" fill="url(#paint2_linear_142_4283)"/>
</g>
<path d="M1285.88 562.886H445V560.302H1285.88V562.886Z" fill="#3A1751"/>
<path d="M1119.05 450.484C1118.16 450.033 1117.3 449.526 1116.47 448.966C1116.41 453.271 1115.62 458.217 1112.8 461.206C1109.59 464.58 1118.38 469.303 1128.32 467.839C1138.25 466.375 1143.33 464.539 1143.33 464.539C1143.33 464.539 1137.82 460.248 1137.58 449.573L1136.62 450.153C1133.94 451.66 1130.94 452.479 1127.87 452.536C1124.81 452.594 1121.77 451.889 1119.05 450.484Z" fill="#E29B8D"/>
<path d="M1160.53 417.59C1159.56 414.216 1155.89 415.943 1155.89 415.943C1156.95 404.513 1155.25 372.199 1123.58 374.487C1091.91 376.774 1097.26 416.065 1097.26 416.065C1093.22 414.041 1090.83 418.474 1093.71 425.802C1096.33 432.482 1102.13 431.314 1102.13 431.314C1105.67 439.452 1111.44 445.599 1116.49 448.966C1117.31 449.526 1118.17 450.033 1119.06 450.484C1121.78 451.884 1124.81 452.587 1127.87 452.529C1130.93 452.471 1133.93 451.655 1136.6 450.153L1137.57 449.573C1147.86 443.096 1152.24 431.078 1152.24 431.078C1159.53 432.954 1161.49 420.93 1160.53 417.59Z" fill="#EAB2A5"/>
<path d="M1158.88 418.015C1159.06 418.224 1158.13 416.881 1157.11 417.576C1156.1 418.271 1155.66 420.775 1156.26 421.625C1156.86 422.475 1157.61 424.324 1156.31 425.147C1155 425.97 1155.38 426.402 1155.38 426.402C1155.78 425.916 1156.3 425.547 1156.89 425.336C1157.83 425.012 1157.84 423.312 1156.89 422.043C1155.93 420.775 1157.25 416.146 1158.88 418.015Z" fill="#BC6262"/>
<path d="M1094.51 418.17C1094.34 418.406 1095.13 416.962 1096.22 417.549C1097.31 418.136 1098.01 420.566 1097.5 421.463C1096.99 422.36 1096.45 424.283 1097.83 424.972C1099.21 425.66 1098.88 426.119 1098.88 426.119C1098.44 425.677 1097.89 425.366 1097.28 425.221C1096.3 424.999 1096.12 423.346 1096.92 421.949C1097.72 420.552 1095.93 416.18 1094.51 418.17Z" fill="#BC6262"/>
<path d="M1123.24 428.413C1123.24 428.413 1123.77 430.653 1126.62 430.653C1129.9 430.653 1130.57 428.413 1130.57 428.413C1130.05 428.908 1129.43 429.291 1128.75 429.538C1128.07 429.785 1127.35 429.892 1126.63 429.85C1125.37 429.756 1124.18 429.251 1123.24 428.413Z" fill="#BC6262"/>
<path d="M1111.04 429.992C1112.8 429.992 1114.22 428.874 1114.22 427.495C1114.22 426.116 1112.8 424.999 1111.04 424.999C1109.29 424.999 1107.86 426.116 1107.86 427.495C1107.86 428.874 1109.29 429.992 1111.04 429.992Z" fill="#E29F91"/>
<path d="M1108.44 414.533C1108.57 414.141 1108.78 413.782 1109.06 413.481C1109.34 413.18 1109.69 412.945 1110.07 412.792C1111.02 412.434 1112 412.185 1113.01 412.05C1117.19 411.436 1118.07 413.629 1117.15 414.459C1116.22 415.289 1115.62 414.277 1112.99 414.763C1110.6 415.194 1107.77 416.456 1108.44 414.533Z" fill="#3A1751"/>
<path d="M1113.48 422.947C1115.01 422.947 1116.25 421.706 1116.25 420.174C1116.25 418.642 1115.01 417.401 1113.48 417.401C1111.95 417.401 1110.71 418.642 1110.71 420.174C1110.71 421.706 1111.95 422.947 1113.48 422.947Z" fill="#3A1751"/>
<path d="M1142.57 429.992C1144.33 429.992 1145.75 428.874 1145.75 427.495C1145.75 426.116 1144.33 424.999 1142.57 424.999C1140.82 424.999 1139.4 426.116 1139.4 427.495C1139.4 428.874 1140.82 429.992 1142.57 429.992Z" fill="#E29F91"/>
<path d="M1145.19 414.533C1145.06 414.136 1144.84 413.771 1144.56 413.467C1144.27 413.162 1143.92 412.925 1143.53 412.772C1142.58 412.413 1141.6 412.164 1140.59 412.03C1136.41 411.416 1135.53 413.609 1136.45 414.439C1137.38 415.269 1137.98 414.257 1140.61 414.742C1143.01 415.194 1145.83 416.456 1145.19 414.533Z" fill="#3A1751"/>
<path d="M1140.14 422.947C1141.67 422.947 1142.91 421.706 1142.91 420.174C1142.91 418.642 1141.67 417.401 1140.14 417.401C1138.61 417.401 1137.36 418.642 1137.36 420.174C1137.36 421.706 1138.61 422.947 1140.14 422.947Z" fill="#3A1751"/>
<path d="M1121.78 438.177C1124.32 441.415 1129.82 441.55 1132.16 438.008C1132.76 437.097 1131.3 436.254 1130.7 437.151C1128.92 439.85 1124.79 439.31 1122.98 436.982C1122.3 436.125 1121.12 437.333 1121.78 438.177Z" fill="#3A1751"/>
<path opacity="0.2" d="M1112.68 427.9C1118.28 427.9 1122.82 423.607 1122.82 418.312C1122.82 413.016 1118.28 408.724 1112.68 408.724C1107.08 408.724 1102.54 413.016 1102.54 418.312C1102.54 423.607 1107.08 427.9 1112.68 427.9Z" fill="#FEFFFF"/>
<path opacity="0.2" d="M1140.11 427.772C1145.71 427.772 1150.25 423.479 1150.25 418.184C1150.25 412.888 1145.71 408.595 1140.11 408.595C1134.51 408.595 1129.97 412.888 1129.97 418.184C1129.97 423.479 1134.51 427.772 1140.11 427.772Z" fill="#FEFFFF"/>
<path d="M1112.64 428.878C1110.55 428.828 1108.52 428.162 1106.8 426.962C1105.09 425.763 1103.77 424.085 1103 422.138C1102.24 420.19 1102.06 418.06 1102.5 416.015C1102.94 413.969 1103.97 412.098 1105.47 410.637C1106.97 409.175 1108.86 408.188 1110.92 407.799C1112.98 407.41 1115.1 407.636 1117.03 408.449C1118.96 409.261 1120.6 410.625 1121.76 412.369C1122.92 414.112 1123.53 416.159 1123.53 418.251C1123.49 421.101 1122.32 423.819 1120.28 425.81C1118.24 427.801 1115.49 428.904 1112.64 428.878ZM1112.64 409.014C1110.83 409.063 1109.07 409.646 1107.58 410.69C1106.09 411.735 1104.95 413.194 1104.29 414.886C1103.63 416.577 1103.48 418.426 1103.86 420.201C1104.25 421.977 1105.15 423.599 1106.45 424.866C1107.75 426.133 1109.39 426.988 1111.18 427.325C1112.96 427.662 1114.81 427.465 1116.48 426.759C1118.16 426.053 1119.58 424.869 1120.59 423.356C1121.59 421.843 1122.13 420.067 1122.13 418.251C1122.09 415.769 1121.07 413.404 1119.29 411.672C1117.52 409.941 1115.12 408.985 1112.64 409.014Z" fill="#616DC1"/>
<path d="M1140.11 428.885C1138.02 428.835 1135.99 428.168 1134.27 426.97C1132.56 425.771 1131.24 424.093 1130.47 422.146C1129.71 420.199 1129.53 418.069 1129.97 416.024C1130.41 413.978 1131.44 412.107 1132.94 410.646C1134.44 409.184 1136.33 408.196 1138.39 407.806C1140.44 407.416 1142.57 407.641 1144.49 408.453C1146.42 409.265 1148.07 410.628 1149.23 412.371C1150.38 414.113 1151 416.159 1151 418.251C1150.96 421.103 1149.79 423.821 1147.75 425.814C1145.71 427.806 1142.96 428.91 1140.11 428.885ZM1140.11 409.014C1138.3 409.064 1136.54 409.648 1135.05 410.694C1133.57 411.739 1132.42 413.198 1131.76 414.89C1131.1 416.582 1130.96 418.431 1131.34 420.205C1131.72 421.98 1132.62 423.602 1133.93 424.868C1135.23 426.134 1136.87 426.989 1138.66 427.325C1140.44 427.661 1142.29 427.464 1143.96 426.758C1145.63 426.052 1147.06 424.868 1148.06 423.355C1149.07 421.842 1149.6 420.067 1149.6 418.251C1149.57 415.768 1148.55 413.402 1146.77 411.67C1144.99 409.938 1142.59 408.983 1140.11 409.014Z" fill="#616DC1"/>
<path d="M1129.69 417.313H1122.82V418.717H1129.69V417.313Z" fill="#616DC1"/>
<path d="M1156.47 389.034V388.987C1156.13 385.789 1155.55 382.854 1154.56 381.119C1153.26 378.812 1150.61 377.071 1147.59 375.816C1147.28 374.691 1146.64 373.685 1145.76 372.928C1130.56 359.871 1108.53 378.42 1098.84 374.81C1098.09 374.515 1097.29 374.385 1096.5 374.429C1095.7 374.473 1094.92 374.691 1094.21 375.066C1093.51 375.442 1092.89 375.966 1092.41 376.604C1091.92 377.241 1091.58 377.976 1091.41 378.758C1090.32 383.947 1090.4 390.316 1095.37 394.5L1095.65 394.722C1095.59 395.357 1095.54 395.998 1095.51 396.652C1095.19 402.994 1095.39 409.351 1096.1 415.66C1096.77 415.853 1097.38 416.192 1097.89 416.652C1098.14 418.231 1099.11 424.041 1100.18 424.074C1101.37 424.108 1102.25 418.777 1101.42 413.811C1101.75 409.695 1102.53 403.062 1104.23 399.527C1109.03 400.991 1115.09 401.079 1124.42 399.776C1128.36 399.172 1132.13 397.722 1135.46 395.525C1142.47 395.438 1146.76 397.044 1148.34 398.811C1149.79 400.431 1150.46 403.029 1150.78 405.019C1151.21 408.549 1151.33 412.109 1151.14 415.66C1150.96 416.909 1150.87 418.17 1150.88 419.432V419.472C1150.91 422.475 1151.49 424.81 1152.29 424.81C1153.53 424.81 1154.85 417.064 1154.85 417.064C1154.9 416.902 1154.96 416.74 1155 416.578L1155.89 415.943C1155.89 415.943 1158.65 405.444 1156.47 389.034Z" fill="#3A1751"/>
<path d="M1203.83 503.864L1205.22 505.767C1205.22 505.767 1208.15 507.609 1213.79 505.166C1219.44 502.724 1224.5 491.442 1225.85 487.305C1227.2 483.169 1226.9 481.341 1227.75 478.183C1228.6 475.025 1224.87 467.609 1222.96 462.893C1221.04 458.176 1217.56 458.77 1216.09 459.081C1214.63 459.391 1209.17 475.949 1208.29 477.447C1207.42 478.945 1201.26 492.393 1203.83 503.864Z" fill="#EAB2A5"/>
<path d="M1240.87 440.613L1209.78 433.858C1208.9 433.667 1208.03 434.226 1207.84 435.107L1196.7 486.373C1196.51 487.254 1197.07 488.124 1197.95 488.315L1229.03 495.07C1229.91 495.261 1230.78 494.702 1230.98 493.821L1242.12 442.555C1242.31 441.674 1241.75 440.804 1240.87 440.613Z" fill="#3A1751"/>
<path d="M1239.11 442.834L1210.66 436.651C1210.23 436.556 1209.79 436.833 1209.7 437.27L1200.25 480.775C1200.15 481.212 1200.43 481.643 1200.86 481.738L1229.32 487.921C1229.75 488.016 1230.18 487.739 1230.28 487.302L1239.73 443.797C1239.83 443.36 1239.55 442.929 1239.11 442.834Z" fill="white"/>
<path d="M1216.1 488.581C1216.3 487.663 1215.69 486.75 1214.72 486.541C1213.76 486.332 1212.82 486.907 1212.62 487.825C1212.42 488.742 1213.04 489.656 1214 489.864C1214.96 490.073 1215.9 489.499 1216.1 488.581Z" fill="white"/>
<path d="M1236.71 449.58L1209.94 443.762L1207.57 454.682L1234.34 460.499L1236.71 449.58Z" fill="#B6B6EF"/>
<path d="M1231.34 474.274L1204.57 468.457L1202.2 479.376L1228.97 485.193L1231.34 474.274Z" fill="#B6B6EF"/>
<path d="M1233.77 462.86L1207 457.043L1206.66 458.632L1233.43 464.45L1233.77 462.86Z" fill="#B6B6EF"/>
<path d="M1237.36 446.393L1210.59 440.575L1210.24 442.164L1237.01 447.982L1237.36 446.393Z" fill="#B6B6EF"/>
<path d="M1233.26 465.215L1206.49 459.397L1206.15 460.987L1232.92 466.804L1233.26 465.215Z" fill="#B6B6EF"/>
<path d="M1232.75 467.57L1205.98 461.753L1205.64 463.342L1232.41 469.159L1232.75 467.57Z" fill="#B6B6EF"/>
<path d="M1232.24 469.925L1205.47 464.107L1205.12 465.696L1231.89 471.514L1232.24 469.925Z" fill="#B6B6EF"/>
<path d="M1201.74 503.594C1201.74 503.594 1200 492.123 1199.88 490.416C1199.77 488.709 1201.17 484.343 1201.34 482.238C1201.51 480.133 1204.27 480.214 1207.11 474.944C1208.19 472.92 1210.89 475.996 1209.23 479.121C1207.56 482.245 1205.93 484.363 1207.2 486.145C1208.47 487.926 1210.72 489.552 1211.48 493.405C1212.24 497.258 1207.63 511.009 1201.74 503.594Z" fill="#EAB2A5"/>
<path d="M1160.93 511.961C1160.93 511.961 1173.91 548.863 1176.82 556.137C1179.74 563.411 1185.08 562.628 1189.37 561.535C1197.38 559.511 1214.61 509.181 1216.25 504.633C1216.25 504.633 1204.21 503.405 1200.58 500.132C1200.58 500.132 1191.13 517.001 1190.16 517.555C1189.2 518.108 1184.29 490.018 1184.29 490.018C1184.29 490.018 1157.99 489.249 1160.93 511.961Z" fill="#616DC1"/>
<path d="M1191.99 514.842C1191.99 514.842 1187.5 522.419 1183.98 528.83C1181.87 532.655 1180.55 536.862 1180.1 541.205C1180.1 541.205 1180.03 530.172 1189.04 514.829C1189.04 514.829 1189.62 517.069 1190.04 517.251C1190.46 517.433 1191.99 514.842 1191.99 514.842Z" fill="#415499"/>
<path d="M1201.07 499.141L1198.38 503.331C1198.38 503.331 1198.61 506.151 1205.29 508.108C1211.98 510.065 1215.06 509.262 1215.06 509.262L1216.63 503.695C1216.63 503.695 1206.85 503.574 1201.07 499.141Z" fill="#4F5FAF"/>
<path d="M1186.41 504.491C1185.31 499.545 1184.55 474.269 1173 469.114C1160.18 463.385 1141.6 458.183 1141.6 458.183C1139.36 464.856 1132.15 467.103 1128.82 467.798C1128.82 467.798 1114.91 467.744 1112.77 458.777C1112.77 458.777 1092.35 462.994 1081.93 468.514C1074.45 472.481 1051.41 503.074 1049.88 507.906C1048.75 511.482 1053.53 520.254 1056.47 525.699C1049.98 534.025 1045.52 539.869 1045.52 539.869C1045.52 539.869 1051.51 540.861 1058.26 535.017C1062.8 531.077 1077.69 516.178 1086.94 506.867C1088.02 525.375 1089.94 555.759 1090.99 556.893C1093.35 559.47 1144.53 558.728 1158.03 556.893C1158.03 556.893 1161.22 531.347 1163.11 510.841C1166.53 521.279 1171.56 536.569 1171.99 538.249C1172.27 539.43 1187.77 510.679 1186.41 504.491ZM1127.7 469.02L1127.75 468.972L1127.78 469.013H1127.7V469.02Z" fill="#616DC1"/>
<path d="M1115.9 454.607L1112.14 458.932C1112.14 458.932 1115.19 469.114 1125.73 469.114C1136.49 469.114 1140.6 461.624 1141.6 458.183L1138.07 454.29C1138.07 454.29 1134.95 461.914 1127.21 462.11C1119.36 462.306 1115.9 454.607 1115.9 454.607Z" fill="#4F5FAF"/>
<path d="M1162.69 515.152C1162.69 515.152 1164.4 497.751 1167.92 492.946C1167.92 492.946 1160.7 497.616 1162.69 515.152Z" fill="#415499"/>
<path d="M1087.66 505.976C1087.66 505.976 1086.01 492.703 1082.49 487.899C1082.49 487.899 1087.38 489.431 1087.66 505.976Z" fill="#415499"/>
<path d="M1036.79 470.335L1035.19 472.076C1035.19 472.076 1032.09 473.594 1026.74 470.558C1021.39 467.522 1017.56 455.767 1016.68 451.51C1015.79 447.252 1016.28 445.437 1015.77 442.239C1015.27 439.04 1019.78 432.03 1022.18 427.549C1024.59 423.069 1027.99 424.034 1029.42 424.499C1030.85 424.965 1034.49 442.003 1035.19 443.602C1035.9 445.201 1040.57 459.209 1036.79 470.335Z" fill="#EAB2A5"/>
<path d="M1019.49 385.875L1007.12 388.08L1007.32 389.243L1019.69 387.037L1019.49 385.875Z" fill="#71A8C6"/>
<path d="M1008.31 387.866L1007.12 388.078L1007.77 391.731L1008.96 391.519L1008.31 387.866Z" fill="#71A8C6"/>
<path d="M1019.49 385.874L1018.3 386.086L1018.95 389.739L1020.14 389.527L1019.49 385.874Z" fill="#71A8C6"/>
<path d="M1037.22 387.535L991.053 395.767C990.106 395.936 989.476 396.84 989.645 397.787L1000.93 461.072C1001.1 462.019 1002 462.649 1002.95 462.48L1049.12 454.248C1050.06 454.08 1050.69 453.176 1050.52 452.229L1039.24 388.943C1039.07 387.997 1038.17 387.366 1037.22 387.535Z" fill="#71A8C6"/>
<path d="M1035.88 391.013L993.525 398.565C992.747 398.703 992.229 399.446 992.368 400.224L1002.69 458.122C1002.83 458.9 1003.57 459.418 1004.35 459.279L1046.71 451.727C1047.48 451.589 1048 450.846 1047.86 450.068L1037.54 392.17C1037.4 391.392 1036.66 390.874 1035.88 391.013Z" fill="white"/>
<path d="M1023.98 388.237L1003.72 391.849L1004.96 398.824L1025.22 395.212L1023.98 388.237Z" fill="#71A8C6"/>
<path d="M1006.66 405.462L999.024 406.824L1002.06 423.876L1009.7 422.514L1006.66 405.462Z" fill="#B6B6EF"/>
<path d="M1016.68 407.792L1009.04 409.155L1011.37 422.221L1019.01 420.859L1016.68 407.792Z" fill="#B6B6EF"/>
<path d="M1026.33 408.128L1018.69 409.49L1020.66 420.564L1028.3 419.202L1026.33 408.128Z" fill="#B6B6EF"/>
<path d="M1036.43 411.008L1028.79 412.371L1029.96 418.9L1037.6 417.538L1036.43 411.008Z" fill="#B6B6EF"/>
<path d="M1038.36 421.747L1002.82 428.084L1005.41 442.611L1040.95 436.275L1038.36 421.747Z" fill="#B6B6EF"/>
<path d="M1041.44 439.103L1005.9 445.439L1007.29 453.245L1042.83 446.908L1041.44 439.103Z" fill="#B6B6EF"/>
<path d="M1038.88 470.302C1038.88 470.302 1041.85 459.114 1042.16 457.4C1042.46 455.686 1041.53 451.206 1041.58 449.114C1041.64 447.023 1038.88 446.78 1036.64 441.24C1035.78 439.135 1032.76 441.881 1034.08 445.16C1035.4 448.44 1036.78 450.734 1035.31 452.36C1033.84 453.986 1031.45 455.376 1030.27 459.107C1029.1 462.839 1032.2 477.036 1038.88 470.302Z" fill="#EAB2A5"/>
<path d="M1024.49 469.02C1024.49 469.02 1033.35 522.75 1037.4 532.534C1041.45 542.318 1051.17 544.342 1065.11 526.401C1080.8 506.219 1064.39 526.401 1064.39 526.401L1053.93 508.243C1053.93 508.243 1041.53 467.36 1041.19 467.164C1040.85 466.968 1029.55 469.067 1024.49 469.02Z" fill="#616DC1"/>
<path d="M1024.3 468.358L1025.13 473.932C1025.13 473.932 1027.24 475.092 1032.99 474.242C1039.88 473.217 1042.43 470.727 1042.43 470.727L1040.75 465.173C1040.75 465.173 1032.47 468.628 1024.3 468.358Z" fill="#4F5FAF"/>
<path d="M1052.44 503.324C1052.44 503.324 1055.9 519.795 1055.81 527.217C1056.34 522.632 1056.34 518.003 1055.81 513.418C1055.32 509.557 1054.48 505.747 1053.31 502.035L1052.44 503.324Z" fill="#415499"/>
<path d="M1154.54 572.216L1174.99 558.789L1125.52 559.524L1154.54 572.216Z" fill="#382549"/>
<path d="M1154.54 572.216H1064.54L1057.31 515.962H1146.72L1154.54 572.216Z" fill="#472F59"/>
<path d="M1153.57 566.393H1063.79L1064.54 572.216H1154.54L1153.57 566.393Z" fill="#472F59"/>
<path d="M1102.24 546.913C1106.53 546.913 1110.02 544.294 1110.02 541.063C1110.02 537.832 1106.53 535.213 1102.24 535.213C1097.94 535.213 1094.46 537.832 1094.46 541.063C1094.46 544.294 1097.94 546.913 1102.24 546.913Z" fill="#B6B6EF"/>
<path d="M1146.72 515.962H1143.8L1152.28 572.216H1154.54L1146.72 515.962Z" fill="#382549"/>
<path d="M999.478 515.466C999.478 515.466 989.008 515.58 983.672 523.277C978.336 530.973 978.522 543.335 983.34 551.534C988.159 559.732 998.75 549.262 998.75 549.262L999.478 515.466Z" fill="#7FBDD3"/>
<path d="M999.478 515.466C999.478 515.466 987.771 520.867 986.801 534.693C985.831 548.518 992.663 553.547 992.663 553.547C992.663 553.547 998.104 555.665 998.589 553.183C999.074 550.701 993.334 539.099 999.478 515.466Z" fill="#71A8C6"/>
<path d="M1001.81 515.466C1001.81 515.466 1012.28 515.58 1017.61 523.277C1022.95 530.973 1022.76 543.335 1017.94 551.534C1013.13 559.732 1002.53 549.262 1002.53 549.262L1001.81 515.466Z" fill="#7FBDD3"/>
<path d="M1001.81 515.466C1001.81 515.466 1013.51 520.867 1014.48 534.693C1015.45 548.518 1008.63 553.547 1008.63 553.547C1008.63 553.547 1003.18 555.665 1002.7 553.183C1002.21 550.701 1007.95 539.099 1001.81 515.466Z" fill="#71A8C6"/>
<path d="M997.311 553.426C997.311 553.426 991.11 540.304 995.031 527.028C998.953 513.752 999.745 515.24 1001.19 515.208C1003.31 515.159 1007.51 528.467 1006.81 540.797C1006.11 553.126 1003.04 554.064 1003.04 554.064L997.311 553.426Z" fill="#7FBDD3"/>
<path d="M997.392 522.056L999.575 525.451C999.834 525.823 999.963 525.969 1000.26 525.969C1000.56 525.969 1000.7 525.896 1001.02 525.54L1003.24 522.056L1000.81 524.885L1000.55 518.498L999.939 524.732L997.392 522.056Z" fill="white"/>
<path d="M997.392 532.768L999.575 536.172C999.834 536.536 999.963 536.681 1000.26 536.681C1000.56 536.681 1000.7 536.609 1001.02 536.253L1003.26 532.768L1000.84 535.606L1000.58 529.211L999.963 535.444L997.392 532.768Z" fill="white"/>
<path d="M997.877 544.249L1000.06 547.653C1000.32 548.017 1000.45 548.17 1000.75 548.17C1001.05 548.17 1001.18 548.097 1001.51 547.734L1003.72 544.249L1001.3 547.087L1001.04 540.7L1000.42 546.925L997.877 544.249Z" fill="white"/>
<path d="M1006.99 514.415L1008.44 518.175C1008.62 518.587 1008.72 518.757 1009 518.822C1009.29 518.886 1009.45 518.822 1009.81 518.547L1012.68 515.572L1009.73 517.868L1010.77 511.553L1008.92 517.569L1006.99 514.415Z" fill="white"/>
<path d="M1014.95 520.94L1016.4 524.7C1016.59 525.112 1016.68 525.282 1016.97 525.338C1017.26 525.395 1017.41 525.338 1017.77 525.071L1020.65 522.088L1017.7 524.392L1018.74 518.078L1016.89 524.061L1014.95 520.94Z" fill="white"/>
<path d="M1008.06 522.759L1009.51 526.519C1009.69 526.931 1009.79 527.101 1010.08 527.157C1010.37 527.214 1010.52 527.157 1010.89 526.891L1013.76 523.907L1010.81 526.211L1011.86 519.897L1009.99 525.88L1008.06 522.759Z" fill="white"/>
<path d="M1018.3 531.661L1019.75 535.428C1019.93 535.841 1020.02 536.01 1020.31 536.067C1020.6 536.124 1020.76 536.067 1021.12 535.8L1024 532.817L1021.05 535.113L1022.09 528.807L1020.24 534.79L1018.3 531.661Z" fill="white"/>
<path d="M1011.86 537.126L1012.66 541.072C1012.78 541.508 1012.84 541.694 1013.12 541.791C1013.39 541.888 1013.55 541.88 1013.98 541.662L1017.32 539.196L1014.02 541.015L1016.1 534.959L1013.26 540.554L1011.86 537.126Z" fill="white"/>
<path d="M1016.9 544.419L1018.36 548.178C1018.53 548.599 1018.63 548.76 1018.92 548.825C1019.21 548.89 1019.37 548.825 1019.73 548.55L1022.61 545.575L1019.66 547.871L1020.7 541.557L1018.83 547.54L1016.9 544.419Z" fill="white"/>
<path d="M991.943 515.442L990.779 519.299C990.633 519.727 990.552 519.897 990.261 519.978C989.97 520.059 989.825 520.026 989.453 519.768L986.356 517.019L989.477 519.089L987.949 512.871L990.269 518.7L991.943 515.442Z" fill="white"/>
<path d="M984.529 522.533L983.373 526.397C983.219 526.818 983.138 526.996 982.855 527.076C982.572 527.157 982.411 527.125 982.006 526.866L978.91 524.109L982.023 526.179L980.503 519.994L982.823 525.815L984.529 522.533Z" fill="white"/>
<path d="M991.943 526.106L990.787 529.963C990.633 530.391 990.552 530.569 990.269 530.642C989.986 530.715 989.825 530.69 989.421 530.44L986.284 527.683L989.404 529.753L987.901 523.535L990.221 529.365L991.943 526.106Z" fill="white"/>
<path d="M990.69 537.927L989.517 541.824C989.372 542.244 989.291 542.422 989 542.503C988.709 542.584 988.563 542.551 988.151 542.292L985.055 539.535L988.175 541.605L986.655 535.356L988.976 541.177L990.69 537.927Z" fill="white"/>
<path d="M982.015 533.48L980.858 537.336C980.705 537.765 980.624 537.943 980.341 538.016C980.058 538.088 979.896 538.064 979.532 537.813L976.436 535.056L979.549 537.126L978.029 530.909L980.349 536.738L982.015 533.48Z" fill="white"/>
<path d="M984.181 545.664L983.68 549.658C983.599 550.103 983.551 550.289 983.284 550.41C983.017 550.531 982.855 550.531 982.411 550.345L978.894 548.122L982.314 549.666L979.816 543.78L983.05 549.157L984.181 545.664Z" fill="white"/>
<path d="M999.22 517.916C999.22 517.916 995.08 517.601 993.738 514.876C992.396 512.152 991.806 508.74 992.517 509.176C993.229 509.613 998.039 512.62 998.484 513.526C998.929 514.432 999.389 507.058 1000.73 505.376C1002.07 503.695 1003.21 513.195 1002.97 513.599C1002.73 514.003 1006.58 509.176 1007.93 508.166C1009.28 507.155 1007.99 518.231 999.22 517.916Z" fill="#629DB7"/>
<path d="M1015.19 587.245H985.814L982.12 550.555H1018.96L1015.19 587.245Z" fill="white"/>
<path d="M423.027 129.97H334.347V187.91H423.027V129.97Z" fill="#FEFFFF"/>
<path d="M423.027 115.32H334.347V129.97H423.027V115.32Z" fill="#71A8C6"/>
<path d="M352.097 108H347.797V122.65H352.097V108Z" fill="#5F99B2"/>
<path d="M370.727 108H366.427V122.65H370.727V108Z" fill="#5F99B2"/>
<path d="M389.347 108H385.047V122.65H389.347V108Z" fill="#5F99B2"/>
<path d="M407.977 108H403.677V122.65H407.977V108Z" fill="#5F99B2"/>
<path d="M357.907 140.4H343.027V155.28H357.907V140.4Z" fill="#B6B6EF"/>
<path d="M376.527 140.4H361.647V155.28H376.527V140.4Z" fill="#B6B6EF"/>
<path d="M395.157 140.4H380.277V155.28H395.157V140.4Z" fill="#71A8C6"/>
<path d="M413.777 140.4H398.897V155.28H413.777V140.4Z" fill="#B6B6EF"/>
<path d="M357.907 159.02H343.027V173.9H357.907V159.02Z" fill="#B6B6EF"/>
<path d="M376.527 159.02H361.647V173.9H376.527V159.02Z" fill="#B6B6EF"/>
<path d="M395.157 159.02H380.277V173.9H395.157V159.02Z" fill="#B6B6EF"/>
<path d="M413.777 159.02H398.897V173.9H413.777V159.02Z" fill="#B6B6EF"/>
<path d="M41.5393 116.82C41.5393 118.954 42.1719 121.039 43.3571 122.814C44.5422 124.588 46.2268 125.971 48.1978 126.788C50.1689 127.605 52.3379 127.819 54.4307 127.403C56.5234 126.988 58.446 125.961 59.9555 124.453C61.4649 122.945 62.4933 121.024 62.9108 118.931C63.3282 116.839 63.116 114.67 62.3008 112.698C61.4857 110.726 60.1043 109.04 58.3312 107.853C56.5581 106.666 54.4729 106.032 52.3393 106.03C50.9215 106.029 49.5173 106.307 48.2071 106.848C46.8968 107.39 45.7062 108.185 44.7032 109.187C43.7002 110.189 42.9045 111.379 42.3616 112.689C41.8187 113.998 41.5393 115.402 41.5393 116.82ZM58.8293 116.82C58.8372 118.11 58.4617 119.373 57.7503 120.45C57.0389 121.526 56.0238 122.367 54.8338 122.865C53.6438 123.363 52.3326 123.497 51.0666 123.248C49.8006 123 48.6369 122.381 47.7233 121.47C46.8096 120.56 46.1872 119.398 45.935 118.133C45.6828 116.867 45.8123 115.556 46.3069 114.364C46.8015 113.173 47.6389 112.155 48.713 111.44C49.787 110.726 51.0492 110.346 52.3393 110.35C54.0572 110.353 55.7045 111.034 56.922 112.246C58.1396 113.458 58.8288 115.102 58.8393 116.82L58.8293 116.82Z" fill="#5F99B2"/>
<path d="M38.3293 114.31L38.3293 118.49L43.9793 118.49L43.9793 114.31L38.3293 114.31Z" fill="#5F99B2"/>
<path d="M49.7293 130.96L53.9093 130.96L53.9093 125.31L49.7293 125.31L49.7293 130.96Z" fill="#5F99B2"/>
<path d="M50.2493 108.51L54.4293 108.51L54.4293 102.86L50.2493 102.86L50.2493 108.51Z" fill="#5F99B2"/>
<path d="M43.5984 105.515L40.5309 108.355L44.369 112.501L47.4365 109.661L43.5984 105.515Z" fill="#5F99B2"/>
<path d="M47.0444 123.74L43.9769 120.9L40.1388 125.047L43.2063 127.886L47.0444 123.74Z" fill="#5F99B2"/>
<path d="M60.9193 114.43L60.9193 118.61L66.5693 118.61L66.5693 114.43L60.9193 114.43Z" fill="#5F99B2"/>
<path d="M56.6532 109.025L59.7207 111.865L63.5588 107.719L60.4913 104.879L56.6532 109.025Z" fill="#5F99B2"/>
<path d="M61.1482 128.524L64.2157 125.684L60.3776 121.538L57.3101 124.378L61.1482 128.524Z" fill="#5F99B2"/>
<path d="M63.6693 54.8799C63.6693 52.9192 62.0799 51.3299 60.1193 51.3299C58.1587 51.3299 56.5693 52.9192 56.5693 54.8799C56.5693 56.8405 58.1587 58.4298 60.1193 58.4298C62.0799 58.4298 63.6693 56.8405 63.6693 54.8799Z" fill="white"/>
<path d="M86.2393 27.92C86.2393 26.5835 85.1558 25.5 83.8193 25.5C82.4828 25.5 81.3993 26.5835 81.3993 27.92C81.3993 29.2565 82.4828 30.34 83.8193 30.34C85.1558 30.34 86.2393 29.2565 86.2393 27.92Z" fill="white"/>
<path d="M53.5893 30.3399C53.5893 29.0034 52.5058 27.9199 51.1693 27.9199C49.8327 27.9199 48.7493 29.0034 48.7493 30.3399C48.7493 31.6764 49.8327 32.7599 51.1693 32.7599C52.5058 32.7599 53.5893 31.6764 53.5893 30.3399Z" fill="white"/>
<path d="M77.2393 76.9298L77.2393 79.9298L71.2393 79.9298L71.2393 76.9298L77.2393 76.9298ZM67.2393 76.8498L67.2393 79.8498L61.2393 79.8498L61.2393 76.8498L67.2393 76.8498ZM57.2393 76.7698L57.2393 79.7698L51.2393 79.7198L51.2393 76.7198L57.2393 76.7698ZM47.2393 76.6898L47.2393 79.6898L41.2393 79.6898L41.2393 76.6898L47.2393 76.6898ZM37.2393 76.6098L37.2393 79.6098L34.4093 79.6098C33.4936 79.6034 32.5815 79.7245 31.6993 79.9698L30.8793 77.0898C32.0014 76.7702 33.1626 76.6087 34.3293 76.6098L37.2393 76.6098ZM28.6093 81.4798C27.2103 82.5156 26.1238 83.9169 25.4693 85.5298L22.6893 84.3498C23.555 82.2358 24.9791 80.3969 26.8093 79.0298L28.6093 81.4798ZM24.7593 88.8898L24.7593 94.8898L21.7593 94.8898L21.7593 88.8898L24.7593 88.8898ZM24.7593 98.8898L24.7593 104.89L21.7593 104.89L21.7593 98.8898L24.7593 98.8898ZM24.7593 108.89L24.7593 114.89L21.7593 114.89L21.7593 108.89L24.7593 108.89ZM24.7593 118.89L24.7593 124.89L21.7593 124.89L21.7593 118.89L24.7593 118.89ZM24.7593 128.89L24.7593 134.89L21.7593 134.89L21.7593 128.89L24.7593 128.89ZM24.7593 138.89L24.7593 144.89L21.7593 144.89L21.7593 138.89L24.7593 138.89ZM24.7593 148.89L24.7593 154.89L21.7593 154.89L21.7593 148.89L24.7593 148.89Z" fill="white"/>
<path d="M889.966 68.9313C887.833 68.9313 885.747 69.5639 883.973 70.7491C882.199 71.9343 880.816 73.6188 879.999 75.5899C879.182 77.5609 878.967 79.7299 879.383 81.8227C879.798 83.9155 880.825 85.8381 882.333 87.3475C883.841 88.8569 885.763 89.8853 887.855 90.3028C889.948 90.7203 892.117 90.508 894.089 89.6929C896.06 88.8777 897.746 87.4963 898.933 85.7232C900.12 83.9501 900.754 81.865 900.756 79.7313C900.758 78.3135 900.479 76.9094 899.938 75.5991C899.396 74.2889 898.602 73.0982 897.599 72.0952C896.597 71.0922 895.408 70.2965 894.098 69.7536C892.788 69.2108 891.384 68.9313 889.966 68.9313ZM889.966 86.2213C888.676 86.2293 887.413 85.8537 886.337 85.1423C885.26 84.4309 884.42 83.4158 883.921 82.2258C883.423 81.0358 883.29 79.7246 883.538 78.4586C883.786 77.1926 884.405 76.029 885.316 75.1153C886.227 74.2017 887.389 73.5792 888.654 73.327C889.919 73.0749 891.231 73.2043 892.422 73.6989C893.614 74.1935 894.631 75.031 895.346 76.105C896.061 77.1791 896.44 78.4412 896.436 79.7313C896.434 81.4493 895.752 83.0965 894.54 84.3141C893.328 85.5316 891.684 86.2208 889.966 86.2313V86.2213Z" fill="#5F99B2"/>
<path d="M892.476 65.7214H888.296V71.3714H892.476V65.7214Z" fill="#5F99B2"/>
<path d="M875.826 77.1213V81.3013H881.476V77.1213H875.826Z" fill="#5F99B2"/>
<path d="M898.276 77.6414V81.8214H903.926V77.6414H898.276Z" fill="#5F99B2"/>
<path d="M901.271 70.9904L898.432 67.9229L894.285 71.761L897.125 74.8285L901.271 70.9904Z" fill="#5F99B2"/>
<path d="M883.046 74.4365L885.886 71.369L881.74 67.5308L878.9 70.5983L883.046 74.4365Z" fill="#5F99B2"/>
<path d="M892.356 88.3113H888.176V93.9613H892.356V88.3113Z" fill="#5F99B2"/>
<path d="M897.761 84.0453L894.921 87.1127L899.068 90.9509L901.907 87.8834L897.761 84.0453Z" fill="#5F99B2"/>
<path d="M878.263 88.5402L881.102 91.6077L885.248 87.7696L882.409 84.7021L878.263 88.5402Z" fill="#5F99B2"/>
<path d="M951.906 91.0614C953.867 91.0614 955.456 89.472 955.456 87.5114C955.456 85.5508 953.867 83.9614 951.906 83.9614C949.946 83.9614 948.356 85.5508 948.356 87.5114C948.356 89.472 949.946 91.0614 951.906 91.0614Z" fill="white"/>
<path d="M978.866 113.631C980.203 113.631 981.286 112.548 981.286 111.211C981.286 109.875 980.203 108.791 978.866 108.791C977.53 108.791 976.446 109.875 976.446 111.211C976.446 112.548 977.53 113.631 978.866 113.631Z" fill="white"/>
<path d="M976.446 80.9813C977.783 80.9813 978.866 79.8978 978.866 78.5613C978.866 77.2248 977.783 76.1413 976.446 76.1413C975.11 76.1413 974.026 77.2248 974.026 78.5613C974.026 79.8978 975.11 80.9813 976.446 80.9813Z" fill="white"/>
<path d="M929.857 104.631H926.857V98.6313H929.857V104.631ZM929.936 94.6313H926.936V88.6313H929.936V94.6313ZM930.016 84.6313H927.016L927.066 78.6313H930.066L930.016 84.6313ZM930.096 74.6313H927.096V68.6313H930.096V74.6313ZM930.176 64.6313H927.176V61.8013C927.183 60.8856 927.062 59.9735 926.816 59.0913L929.697 58.2713C930.016 59.3934 930.178 60.5546 930.176 61.7213V64.6313ZM925.306 56.0013C924.271 54.6023 922.869 53.5159 921.257 52.8613L922.436 50.0813C924.551 50.947 926.389 52.3711 927.757 54.2013L925.306 56.0013ZM917.896 52.1513H911.896V49.1513H917.896V52.1513ZM907.896 52.1513H901.896V49.1513H907.896V52.1513ZM897.896 52.1513H891.896V49.1513H897.896V52.1513ZM887.896 52.1513H881.896V49.1513H887.896V52.1513ZM877.896 52.1513H871.896V49.1513H877.896V52.1513ZM867.896 52.1513H861.896V49.1513H867.896V52.1513ZM857.896 52.1513H851.896V49.1513H857.896V52.1513Z" fill="white"/>
<path d="M1306.22 653.68C1306.22 651.546 1305.59 649.461 1304.4 647.686C1303.22 645.912 1301.53 644.529 1299.56 643.712C1297.59 642.895 1295.42 642.681 1293.33 643.097C1291.24 643.512 1289.31 644.539 1287.8 646.047C1286.29 647.555 1285.27 649.476 1284.85 651.569C1284.43 653.661 1284.64 655.83 1285.46 657.802C1286.27 659.774 1287.66 661.46 1289.43 662.647C1291.2 663.834 1293.29 664.468 1295.42 664.47C1296.84 664.471 1298.24 664.193 1299.55 663.652C1300.86 663.11 1302.05 662.315 1303.06 661.313C1304.06 660.311 1304.85 659.121 1305.4 657.811C1305.94 656.502 1306.22 655.098 1306.22 653.68ZM1288.93 653.68C1288.92 652.39 1289.3 651.127 1290.01 650.05C1290.72 648.974 1291.74 648.133 1292.93 647.635C1294.12 647.137 1295.43 647.003 1296.69 647.252C1297.96 647.5 1299.12 648.119 1300.04 649.03C1300.95 649.941 1301.57 651.102 1301.82 652.367C1302.08 653.633 1301.95 654.944 1301.45 656.136C1300.96 657.327 1300.12 658.345 1299.05 659.06C1297.97 659.775 1296.71 660.154 1295.42 660.15C1293.7 660.147 1292.05 659.466 1290.84 658.254C1289.62 657.042 1288.93 655.398 1288.92 653.68L1288.93 653.68Z" fill="#5F99B2"/>
<path d="M1309.43 656.19L1309.43 652.01L1303.78 652.01L1303.78 656.19L1309.43 656.19Z" fill="#5F99B2"/>
<path d="M1298.03 639.54L1293.85 639.54L1293.85 645.19L1298.03 645.19L1298.03 639.54Z" fill="#5F99B2"/>
<path d="M1297.51 661.99L1293.33 661.99L1293.33 667.64L1297.51 667.64L1297.51 661.99Z" fill="#5F99B2"/>
<path d="M1304.16 664.985L1307.23 662.145L1303.39 657.999L1300.32 660.839L1304.16 664.985Z" fill="#5F99B2"/>
<path d="M1300.71 646.76L1303.78 649.6L1307.62 645.453L1304.55 642.614L1300.71 646.76Z" fill="#5F99B2"/>
<path d="M1286.84 656.07L1286.84 651.89L1281.19 651.89L1281.19 656.07L1286.84 656.07Z" fill="#5F99B2"/>
<path d="M1291.11 661.475L1288.04 658.635L1284.2 662.781L1287.27 665.621L1291.11 661.475Z" fill="#5F99B2"/>
<path d="M1286.61 641.976L1283.54 644.816L1287.38 648.962L1290.45 646.123L1286.61 641.976Z" fill="#5F99B2"/>
<path d="M1284.09 715.62C1284.09 717.581 1285.68 719.17 1287.64 719.17C1289.6 719.17 1291.19 717.581 1291.19 715.62C1291.19 713.66 1289.6 712.07 1287.64 712.07C1285.68 712.07 1284.09 713.66 1284.09 715.62Z" fill="white"/>
<path d="M1261.52 742.58C1261.52 743.917 1262.6 745 1263.94 745C1265.28 745 1266.36 743.917 1266.36 742.58C1266.36 741.243 1265.28 740.16 1263.94 740.16C1262.6 740.16 1261.52 741.243 1261.52 742.58Z" fill="white"/>
<path d="M1294.17 740.16C1294.17 741.497 1295.25 742.58 1296.59 742.58C1297.93 742.58 1299.01 741.497 1299.01 740.16C1299.01 738.824 1297.93 737.74 1296.59 737.74C1295.25 737.74 1294.17 738.824 1294.17 740.16Z" fill="white"/>
<path d="M1270.52 693.57L1270.52 690.57L1276.52 690.57L1276.52 693.57L1270.52 693.57ZM1280.52 693.65L1280.52 690.65L1286.52 690.65L1286.52 693.65L1280.52 693.65ZM1290.52 693.73L1290.52 690.73L1296.52 690.78L1296.52 693.78L1290.52 693.73ZM1300.52 693.81L1300.52 690.81L1306.52 690.81L1306.52 693.81L1300.52 693.81ZM1310.52 693.89L1310.52 690.89L1313.35 690.89C1314.27 690.897 1315.18 690.775 1316.06 690.53L1316.88 693.41C1315.76 693.73 1314.6 693.891 1313.43 693.89L1310.52 693.89ZM1319.15 689.02C1320.55 687.984 1321.64 686.583 1322.29 684.97L1325.07 686.15C1324.2 688.264 1322.78 690.103 1320.95 691.47L1319.15 689.02ZM1323 681.61L1323 675.61L1326 675.61L1326 681.61L1323 681.61ZM1323 671.61L1323 665.61L1326 665.61L1326 671.61L1323 671.61ZM1323 661.61L1323 655.61L1326 655.61L1326 661.61L1323 661.61ZM1323 651.61L1323 645.61L1326 645.61L1326 651.61L1323 651.61ZM1323 641.61L1323 635.61L1326 635.61L1326 641.61L1323 641.61ZM1323 631.61L1323 625.61L1326 625.61L1326 631.61L1323 631.61ZM1323 621.61L1323 615.61L1326 615.61L1326 621.61L1323 621.61Z" fill="white"/>
<path d="M472.088 643.911C474.222 643.911 476.308 643.278 478.082 642.093C479.856 640.908 481.239 639.224 482.056 637.252C482.873 635.281 483.087 633.112 482.672 631.02C482.256 628.927 481.23 627.004 479.721 625.495C478.213 623.985 476.292 622.957 474.199 622.54C472.107 622.122 469.938 622.334 467.966 623.149C465.994 623.965 464.308 625.346 463.122 627.119C461.935 628.892 461.3 630.977 461.298 633.111C461.297 634.529 461.575 635.933 462.117 637.243C462.658 638.553 463.453 639.744 464.455 640.747C465.457 641.75 466.647 642.546 467.957 643.089C469.267 643.632 470.67 643.911 472.088 643.911ZM472.088 626.621C473.378 626.613 474.642 626.989 475.718 627.7C476.794 628.411 477.635 629.427 478.133 630.617C478.631 631.807 478.765 633.118 478.517 634.384C478.268 635.65 477.649 636.813 476.739 637.727C475.828 638.641 474.666 639.263 473.401 639.515C472.136 639.767 470.824 639.638 469.632 639.143C468.441 638.649 467.423 637.811 466.708 636.737C465.994 635.663 465.614 634.401 465.618 633.111C465.621 631.393 466.302 629.746 467.514 628.528C468.726 627.311 470.37 626.622 472.088 626.611L472.088 626.621Z" fill="#5F99B2"/>
<path d="M469.578 647.121L473.758 647.121L473.758 641.471L469.578 641.471L469.578 647.121Z" fill="#5F99B2"/>
<path d="M486.228 635.721L486.228 631.541L480.578 631.541L480.578 635.721L486.228 635.721Z" fill="#5F99B2"/>
<path d="M463.778 635.201L463.778 631.021L458.128 631.021L458.128 635.201L463.778 635.201Z" fill="#5F99B2"/>
<path d="M460.783 641.852L463.623 644.919L467.769 641.081L464.93 638.014L460.783 641.852Z" fill="#5F99B2"/>
<path d="M479.008 638.406L476.169 641.473L480.315 645.312L483.154 642.244L479.008 638.406Z" fill="#5F99B2"/>
<path d="M469.698 624.531L473.878 624.531L473.878 618.881L469.698 618.881L469.698 624.531Z" fill="#5F99B2"/>
<path d="M464.294 628.797L467.133 625.73L462.987 621.891L460.147 624.959L464.294 628.797Z" fill="#5F99B2"/>
<path d="M483.792 624.302L480.953 621.235L476.806 625.073L479.646 628.14L483.792 624.302Z" fill="#5F99B2"/>
<path d="M410.148 621.781C408.188 621.781 406.598 623.37 406.598 625.331C406.598 627.292 408.188 628.881 410.148 628.881C412.109 628.881 413.698 627.292 413.698 625.331C413.698 623.37 412.109 621.781 410.148 621.781Z" fill="white"/>
<path d="M383.188 599.211C381.852 599.211 380.768 600.294 380.768 601.631C380.768 602.968 381.852 604.051 383.188 604.051C384.525 604.051 385.608 602.968 385.608 601.631C385.608 600.294 384.525 599.211 383.188 599.211Z" fill="white"/>
<path d="M385.608 631.861C384.272 631.861 383.188 632.945 383.188 634.281C383.188 635.618 384.272 636.701 385.608 636.701C386.945 636.701 388.028 635.618 388.028 634.281C388.028 632.945 386.945 631.861 385.608 631.861Z" fill="white"/>
<path d="M432.198 608.211L435.198 608.211L435.198 614.211L432.198 614.211L432.198 608.211ZM432.118 618.211L435.118 618.211L435.118 624.211L432.118 624.211L432.118 618.211ZM432.038 628.211L435.038 628.211L434.988 634.211L431.988 634.211L432.038 628.211ZM431.958 638.211L434.958 638.211L434.958 644.211L431.958 644.211L431.958 638.211ZM431.878 648.211L434.878 648.211L434.878 651.041C434.872 651.957 434.993 652.869 435.238 653.751L432.358 654.571C432.038 653.449 431.877 652.288 431.878 651.121L431.878 648.211ZM436.748 656.841C437.784 658.24 439.185 659.326 440.798 659.981L439.618 662.761C437.504 661.895 435.665 660.471 434.298 658.641L436.748 656.841ZM444.158 660.691L450.158 660.691L450.158 663.691L444.158 663.691L444.158 660.691ZM454.158 660.691L460.158 660.691L460.158 663.691L454.158 663.691L454.158 660.691ZM464.158 660.691L470.158 660.691L470.158 663.691L464.158 663.691L464.158 660.691ZM474.158 660.691L480.158 660.691L480.158 663.691L474.158 663.691L474.158 660.691ZM484.158 660.691L490.158 660.691L490.158 663.691L484.158 663.691L484.158 660.691ZM494.158 660.691L500.158 660.691L500.158 663.691L494.158 663.691L494.158 660.691ZM504.158 660.691L510.158 660.691L510.158 663.691L504.158 663.691L504.158 660.691Z" fill="white"/>
<path d="M838.524 696.498C838.524 694.364 837.891 692.277 836.706 690.503C835.52 688.729 833.835 687.346 831.863 686.529C829.892 685.712 827.722 685.499 825.629 685.915C823.536 686.331 821.613 687.359 820.104 688.868C818.595 690.377 817.568 692.3 817.151 694.393C816.735 696.486 816.949 698.655 817.765 700.627C818.582 702.598 819.965 704.284 821.739 705.469C823.514 706.655 825.6 707.288 827.734 707.288C829.151 707.288 830.554 707.009 831.863 706.466C833.172 705.924 834.362 705.129 835.364 704.127C836.366 703.125 837.16 701.936 837.703 700.627C838.245 699.318 838.524 697.915 838.524 696.498ZM821.234 696.498C821.234 695.21 821.616 693.951 822.332 692.88C823.048 691.809 824.065 690.975 825.255 690.482C826.445 689.99 827.755 689.861 829.018 690.113C830.281 690.365 831.441 690.986 832.351 691.898C833.261 692.809 833.88 693.97 834.13 695.234C834.38 696.497 834.25 697.806 833.756 698.996C833.261 700.185 832.425 701.201 831.354 701.915C830.282 702.629 829.022 703.01 827.734 703.008C826.009 703.005 824.356 702.318 823.137 701.097C821.919 699.877 821.234 698.222 821.234 696.498Z" fill="#5F99B2"/>
<path d="M841.744 699.008L841.744 694.828L836.094 694.828L836.094 699.008L841.744 699.008Z" fill="#5F99B2"/>
<path d="M830.354 682.358L826.174 682.358L826.174 688.008L830.354 688.008L830.354 682.358Z" fill="#5F99B2"/>
<path d="M829.824 704.808L825.644 704.808L825.644 710.458L829.824 710.458L829.824 704.808Z" fill="#5F99B2"/>
<path d="M836.481 707.802L839.548 704.962L835.71 700.816L832.643 703.655L836.481 707.802Z" fill="#5F99B2"/>
<path d="M833.021 689.575L836.089 692.414L839.927 688.268L836.859 685.429L833.021 689.575Z" fill="#5F99B2"/>
<path d="M819.154 698.888L819.154 694.708L813.504 694.708L813.504 698.888L819.154 698.888Z" fill="#5F99B2"/>
<path d="M823.418 704.295L820.35 701.455L816.512 705.602L819.58 708.441L823.418 704.295Z" fill="#5F99B2"/>
<path d="M818.919 684.804L815.852 687.644L819.69 691.79L822.757 688.95L818.919 684.804Z" fill="#5F99B2"/>
<path d="M864.554 679.158L867.554 679.158L867.604 685.158L864.604 685.158L864.554 679.158ZM864.634 689.158L867.634 689.158L867.634 695.158L864.634 695.158L864.634 689.158ZM864.724 699.158L867.724 699.158L867.774 705.158L864.774 705.158L864.724 699.158ZM864.904 709.358L867.904 708.918C868.158 710.551 868.997 712.036 870.264 713.098L868.344 715.398C866.491 713.878 865.266 711.726 864.904 709.358ZM872.524 717.438L873.134 714.508C873.592 714.599 874.057 714.646 874.524 714.648L878.814 714.648L878.814 717.648L874.524 717.648C873.852 717.648 873.181 717.578 872.524 717.438ZM882.814 717.648L882.814 714.648L888.814 714.648L888.814 717.648L882.814 717.648ZM892.814 717.648L892.814 714.648L898.814 714.648L898.814 717.648L892.814 717.648ZM902.814 717.648L902.814 714.648L908.814 714.648L908.814 717.648L902.814 717.648ZM912.814 717.648L912.814 714.648L918.814 714.648L918.814 717.648L912.814 717.648ZM922.814 717.648L922.814 714.648L928.814 714.648L928.814 717.648L922.814 717.648ZM932.814 717.648L932.814 714.648L938.814 714.648L938.814 717.648L932.814 717.648ZM942.814 717.648L942.814 714.648L948.814 714.648L948.814 717.648L942.814 717.648ZM952.814 717.648L952.814 714.648L958.814 714.648L958.814 717.648L952.814 717.648ZM962.814 717.648L962.814 714.648L968.814 714.648L968.814 717.648L962.814 717.648ZM972.814 717.648L972.814 714.648L978.814 714.648L978.814 717.648L972.814 717.648ZM982.414 714.458C983.182 714.256 983.899 713.895 984.519 713.399C985.139 712.903 985.649 712.283 986.014 711.578L988.674 712.958C988.117 714.034 987.34 714.981 986.395 715.739C985.449 716.497 984.356 717.048 983.184 717.358L982.414 714.458ZM986.654 708.398L986.654 702.398L989.654 702.398L989.654 708.398L986.654 708.398ZM986.654 698.398L986.654 692.398L989.654 692.398L989.654 698.398L986.654 698.398Z" fill="white"/>
<path d="M908.964 691.278C908.964 693.238 910.553 694.828 912.514 694.828C914.475 694.828 916.064 693.238 916.064 691.278C916.064 689.317 914.475 687.728 912.514 687.728C910.553 687.728 908.964 689.317 908.964 691.278Z" fill="white"/>
<path d="M745.504 712.318C745.504 714.278 747.093 715.868 749.054 715.868C751.015 715.868 752.604 714.278 752.604 712.318C752.604 710.357 751.015 708.768 749.054 708.768C747.093 708.768 745.504 710.357 745.504 712.318Z" fill="white"/>
<path d="M199.07 280.14C226.723 280.14 249.14 257.723 249.14 230.07C249.14 202.417 226.723 180 199.07 180C171.417 180 149 202.417 149 230.07C149 257.723 171.417 280.14 199.07 280.14Z" fill="#71A8C6"/>
<path d="M199.07 272.92C222.735 272.92 241.92 253.736 241.92 230.07C241.92 206.405 222.735 187.22 199.07 187.22C175.404 187.22 156.22 206.405 156.22 230.07C156.22 253.736 175.404 272.92 199.07 272.92Z" fill="#FEFFFF"/>
<path d="M200.367 188.454H197.757V198.612H200.367V188.454Z" fill="#71A8C6"/>
<path d="M200.367 261.981H197.757V271.17H200.367V261.981Z" fill="#71A8C6"/>
<path d="M157.704 228.507V231.117H167.674V228.507H157.704Z" fill="#71A8C6"/>
<path d="M231.465 228.507V231.117H240.42V228.507H231.465Z" fill="#71A8C6"/>
<path d="M175.941 207.426L174.488 209.614L167.503 203.316L169.253 201.378L175.941 207.426Z" fill="#71A8C6"/>
<path d="M230.622 256.824L228.871 258.762L222.402 252.902L224.324 251.136L230.622 256.824Z" fill="#71A8C6"/>
<path d="M220.12 205.629L221.667 207.754L228.512 201.206L226.699 199.331L220.12 205.629Z" fill="#71A8C6"/>
<path d="M167.018 256.574L168.815 258.449L175.707 251.839L173.816 250.042L167.018 256.574Z" fill="#71A8C6"/>
<path d="M197.757 231.023H200.367V203.535H197.757V231.023Z" fill="#71A8C6"/>
<path d="M215.354 228.507H197.757V231.117H215.354V228.507Z" fill="#71A8C6"/>
<path d="M1287.71 578.832H1253.36L1249.03 529.591H1292.13L1287.71 578.832Z" fill="white"/>
<path d="M1259.85 565.583H1248.63C1246.89 565.581 1245.2 564.942 1243.9 563.785C1242.6 562.628 1241.76 561.034 1241.55 559.304L1240.4 549.724C1240.29 548.774 1240.38 547.81 1240.67 546.897C1240.95 545.984 1241.43 545.143 1242.07 544.428C1242.7 543.713 1243.48 543.141 1244.36 542.75C1245.23 542.359 1246.18 542.157 1247.13 542.159H1255.05V544.996H1247.11C1246.55 544.996 1246 545.114 1245.49 545.343C1244.98 545.572 1244.52 545.906 1244.15 546.323C1243.78 546.74 1243.51 547.232 1243.34 547.764C1243.17 548.296 1243.12 548.858 1243.19 549.412L1244.34 558.991C1244.47 560.033 1244.97 560.993 1245.75 561.69C1246.54 562.387 1247.55 562.772 1248.6 562.774H1259.85V565.583Z" fill="white"/>
<path d="M986.04 270.411C983.906 270.411 981.82 271.044 980.045 272.229C978.271 273.415 976.888 275.1 976.071 277.072C975.255 279.043 975.041 281.213 975.457 283.306C975.874 285.399 976.901 287.322 978.41 288.831C979.919 290.34 981.842 291.367 983.935 291.784C986.028 292.2 988.198 291.986 990.169 291.17C992.141 290.353 993.826 288.97 995.012 287.195C996.197 285.421 996.83 283.335 996.83 281.201C996.83 278.339 995.693 275.595 993.67 273.571C991.646 271.548 988.902 270.411 986.04 270.411ZM986.04 287.711C984.752 287.711 983.494 287.329 982.423 286.614C981.353 285.898 980.518 284.882 980.026 283.692C979.533 282.503 979.404 281.194 979.655 279.931C979.906 278.668 980.526 277.508 981.437 276.598C982.347 275.687 983.507 275.067 984.77 274.816C986.033 274.565 987.342 274.694 988.531 275.186C989.721 275.679 990.738 276.514 991.453 277.584C992.168 278.655 992.55 279.913 992.55 281.201C992.55 282.927 991.864 284.583 990.643 285.804C989.422 287.025 987.767 287.711 986.04 287.711Z" fill="#5F99B2"/>
<path d="M988.55 267.191H984.37V272.841H988.55V267.191Z" fill="#5F99B2"/>
<path d="M971.9 278.591V282.771H977.55V278.591H971.9Z" fill="#5F99B2"/>
<path d="M994.35 279.111V283.291H1000V279.111H994.35Z" fill="#5F99B2"/>
<path d="M997.353 272.46L994.513 269.392L990.367 273.23L993.207 276.298L997.353 272.46Z" fill="#5F99B2"/>
<path d="M979.108 275.904L981.948 272.836L977.802 268.998L974.962 272.066L979.108 275.904Z" fill="#5F99B2"/>
<path d="M988.43 289.791H984.25V295.441H988.43V289.791Z" fill="#5F99B2"/>
<path d="M993.839 285.53L991 288.598L995.146 292.436L997.985 289.369L993.839 285.53Z" fill="#5F99B2"/>
<path d="M974.345 290.017L977.184 293.085L981.33 289.247L978.491 286.179L974.345 290.017Z" fill="#5F99B2"/>
<path d="M1076 323.831C1076 310.831 1059.09 300.311 1038.23 300.311C1017.37 300.311 1000.47 310.841 1000.47 323.831C1000.47 336.821 1017.38 347.351 1038.23 347.351C1041.74 347.353 1045.25 347.042 1048.71 346.421L1061.4 354.171L1060.66 342.761C1069.9 338.491 1076 331.601 1076 323.831Z" fill="#FEFFFF"/>
<path d="M1021.73 336.781H1054.75C1055.94 336.781 1056.9 335.818 1056.9 334.631V313.021C1056.9 311.834 1055.94 310.871 1054.75 310.871H1021.73C1020.54 310.871 1019.58 311.834 1019.58 313.021V334.631C1019.58 335.818 1020.54 336.781 1021.73 336.781Z" fill="#62497F"/>
<path d="M1038.77 323.451L1055.9 312.261C1056.66 311.731 1054.9 310.871 1053.9 310.871H1022.6C1021.67 310.871 1019.89 311.671 1020.6 312.201L1037.65 323.451C1037.81 323.574 1038.01 323.641 1038.21 323.641C1038.41 323.641 1038.61 323.574 1038.77 323.451Z" fill="#6D598E"/>
<path d="M1038.25 289.921C1039.59 289.921 1040.67 288.837 1040.67 287.501C1040.67 286.164 1039.59 285.081 1038.25 285.081C1036.91 285.081 1035.83 286.164 1035.83 287.501C1035.83 288.837 1036.91 289.921 1038.25 289.921Z" fill="white"/>
<path d="M1063.98 284.451C1065.94 284.451 1067.53 282.862 1067.53 280.901C1067.53 278.94 1065.94 277.351 1063.98 277.351C1062.02 277.351 1060.43 278.94 1060.43 280.901C1060.43 282.862 1062.02 284.451 1063.98 284.451Z" fill="white"/>
<path d="M963.9 370.711H960.9V364.711H963.9V370.711ZM963.9 360.711H960.9V354.711H963.9V360.711ZM963.9 350.711H960.9V344.711H963.9V350.711ZM963.9 340.711H960.9V334.711H963.9V340.711ZM963.9 330.711H960.9V330.521C960.9 328.218 961.695 325.986 963.15 324.201L965.47 326.101C964.465 327.337 963.911 328.878 963.9 330.471V330.711ZM968.07 324.131L966.86 321.381C968.12 320.826 969.483 320.539 970.86 320.541H973.35V323.541H970.84C969.876 323.524 968.919 323.708 968.03 324.081L968.07 324.131ZM993.37 323.541H987.37V320.541H993.37V323.541ZM983.37 323.541H977.37V320.541H983.37V323.541Z" fill="white"/>
<path d="M1243 221.526L1282.03 196.95L1321.06 221.526" fill="#472F59"/>
<path d="M1243 221.526L1282.03 246.087L1321.06 221.526" fill="#472F59"/>
<path d="M1313.17 180H1250.9V260.389H1313.17V180Z" fill="#B6B6EF"/>
<path d="M1278.5 185.576H1255.96V197.884H1278.5V185.576Z" fill="#62497F"/>
<path d="M1307.54 204.338H1255.96V207.266H1307.54V204.338Z" fill="#62497F"/>
<path d="M1307.82 213.594H1256.24V216.521H1307.82V213.594Z" fill="#62497F"/>
<path d="M1308.1 222.85H1256.52V225.777H1308.1V222.85Z" fill="#62497F"/>
<path d="M1282.03 246.087L1243 221.526V270.662H1321.06V221.526L1282.03 246.087Z" fill="#5C4275"/>
<path d="M1243 270.662L1282.03 246.087L1321.06 270.662" fill="#62497F"/>
<path d="M250.56 465.837C240.991 465.833 231.636 468.668 223.678 473.982C215.72 479.296 209.517 486.851 205.853 495.69C202.19 504.53 201.23 514.258 203.096 523.644C204.962 533.029 209.57 541.65 216.336 548.417C223.102 555.183 231.723 559.791 241.109 561.657C250.494 563.523 260.222 562.563 269.062 558.899C277.902 555.236 285.457 549.033 290.771 541.075C296.085 533.117 298.92 523.762 298.916 514.193C298.916 501.368 293.821 489.068 284.753 480C275.684 470.931 263.385 465.837 250.56 465.837ZM250.56 540.121C245.431 540.125 240.416 538.607 236.15 535.76C231.884 532.914 228.557 528.865 226.592 524.128C224.627 519.39 224.111 514.176 225.109 509.145C226.107 504.115 228.575 499.493 232.201 495.865C235.826 492.237 240.446 489.766 245.476 488.764C250.507 487.762 255.721 488.274 260.46 490.236C265.199 492.198 269.249 495.521 272.099 499.786C274.949 504.05 276.47 509.064 276.47 514.193C276.47 521.066 273.741 527.658 268.882 532.52C264.024 537.382 257.434 540.116 250.56 540.121Z" fill="#71A8C6"/>
<path d="M224.76 511.576C225.23 506.978 226.92 502.59 229.654 498.864C232.389 495.138 236.069 492.211 240.314 490.383L234.066 468.712C224.897 472.039 216.947 478.06 211.261 485.986C205.575 493.912 202.418 503.372 202.204 513.124L224.76 511.576Z" fill="#62497F"/>
<path d="M289.683 485.795L271.734 499.266C274.092 502.598 275.625 506.442 276.208 510.481C276.791 514.521 276.407 518.641 275.088 522.504L296.189 530.059C298.737 522.704 299.472 514.842 298.329 507.141C297.187 499.441 294.202 492.131 289.628 485.832L289.683 485.795Z" fill="#B6B6EF"/>
<path d="M101.965 573.758C103.925 573.758 105.515 572.168 105.515 570.208C105.515 568.247 103.925 566.658 101.965 566.658C100.004 566.658 98.4149 568.247 98.4149 570.208C98.4149 572.168 100.004 573.758 101.965 573.758Z" fill="white"/>
<path d="M387.13 284.907C384.399 284.907 381.729 285.717 379.458 287.235C377.187 288.752 375.417 290.909 374.371 293.432C373.326 295.956 373.053 298.733 373.585 301.411C374.118 304.09 375.434 306.551 377.365 308.482C379.296 310.414 381.757 311.729 384.436 312.262C387.115 312.795 389.891 312.521 392.415 311.476C394.938 310.431 397.095 308.661 398.613 306.39C400.13 304.119 400.94 301.449 400.94 298.717C400.94 295.055 399.485 291.542 396.895 288.952C394.305 286.362 390.793 284.907 387.13 284.907ZM387.13 307.047C385.483 307.047 383.872 306.559 382.502 305.643C381.132 304.728 380.065 303.427 379.434 301.905C378.804 300.383 378.639 298.708 378.96 297.092C379.282 295.476 380.075 293.992 381.24 292.827C382.405 291.662 383.889 290.869 385.505 290.547C387.121 290.226 388.796 290.391 390.318 291.021C391.84 291.652 393.141 292.72 394.056 294.089C394.972 295.459 395.46 297.07 395.46 298.717C395.46 300.927 394.582 303.045 393.02 304.607C391.458 306.17 389.339 307.047 387.13 307.047Z" fill="#5F99B2"/>
<path d="M390.34 280.777H384.99V288.017H390.34V280.777Z" fill="#5F99B2"/>
<path d="M369.02 295.387V300.737H376.26V295.387H369.02Z" fill="#5F99B2"/>
<path d="M397.76 296.047V301.397H405V296.047H397.76Z" fill="#5F99B2"/>
<path d="M401.606 287.525L397.971 283.599L392.658 288.517L396.292 292.443L401.606 287.525Z" fill="#5F99B2"/>
<path d="M378.267 291.941L381.902 288.015L376.589 283.096L372.954 287.023L378.267 291.941Z" fill="#5F99B2"/>
<path d="M390.19 309.717H384.84V316.957H390.19V309.717Z" fill="#5F99B2"/>
<path d="M397.102 304.256L393.468 308.182L398.781 313.1L402.415 309.174L397.102 304.256Z" fill="#5F99B2"/>
<path d="M372.148 310.011L375.783 313.937L381.096 309.018L377.461 305.092L372.148 310.011Z" fill="#5F99B2"/>
<path d="M371.55 228.397C373.511 228.397 375.1 226.808 375.1 224.847C375.1 222.887 373.511 221.297 371.55 221.297C369.589 221.297 368 222.887 368 224.847C368 226.808 369.589 228.397 371.55 228.397Z" fill="white"/>
<path d="M116.865 659.534C118.826 659.534 120.415 657.944 120.415 655.984C120.415 654.023 118.826 652.434 116.865 652.434C114.904 652.434 113.315 654.023 113.315 655.984C113.315 657.944 114.904 659.534 116.865 659.534Z" fill="white"/>
</g>
<defs>
<filter id="filter0_f_142_4283" x="-697" y="-497" width="1221" height="1214" filterUnits="userSpaceOnUse" color-interpolation-filters="sRGB">
<feFlood flood-opacity="0" result="BackgroundImageFix"/>
<feBlend mode="normal" in="SourceGraphic" in2="BackgroundImageFix" result="shape"/>
<feGaussianBlur stdDeviation="150" result="effect1_foregroundBlur_142_4283"/>
</filter>
<filter id="filter1_f_142_4283" x="471" y="64" width="1543" height="1347" filterUnits="userSpaceOnUse" color-interpolation-filters="sRGB">
<feFlood flood-opacity="0" result="BackgroundImageFix"/>
<feBlend mode="normal" in="SourceGraphic" in2="BackgroundImageFix" result="shape"/>
<feGaussianBlur stdDeviation="175" result="effect1_foregroundBlur_142_4283"/>
</filter>
<linearGradient id="paint0_linear_142_4283" x1="287.104" y1="83.7705" x2="1232.01" y2="713.242" gradientUnits="userSpaceOnUse">
<stop stop-color="#A7D4FF" stop-opacity="0.42"/>
<stop offset="0.515625" stop-color="#69A5DF" stop-opacity="0.237344"/>
<stop offset="1" stop-color="#597FA4" stop-opacity="0.04"/>
</linearGradient>
<linearGradient id="paint1_linear_142_4283" x1="-86.5" y1="-197" x2="-86.5" y2="417" gradientUnits="userSpaceOnUse">
<stop stop-color="#4D76E9"/>
<stop offset="1" stop-color="#5BD1F9"/>
</linearGradient>
<linearGradient id="paint2_linear_142_4283" x1="1242.5" y1="414" x2="1242.5" y2="1061" gradientUnits="userSpaceOnUse">
<stop stop-color="#4D76E9"/>
<stop offset="1" stop-color="#5BD1F9"/>
</linearGradient>
</defs>
</svg>
